<?xml version="1.0" encoding="iso-8859-1"?>
<!-- Generator: Adobe Illustrator 19.0.0, SVG Export Plug-In . SVG Version: 6.00 Build 0)  -->
<svg version="1.1" id="Capa_1" xmlns="http://www.w3.org/2000/svg" xmlns:xlink="http://www.w3.org/1999/xlink" x="0px" y="0px"
	 viewBox="0 0 512.001 512.001" style="enable-background:new 0 0 512.001 512.001;" xml:space="preserve">
<g>
	<path style="fill:#C2C2C4;" d="M112.643,309.137H92.946c-1.613,0-3.067-0.971-3.685-2.461l-6.681-16.109
		c-0.618-1.49-2.072-2.461-3.685-2.461H36.816c-1.66,0-3.146,1.027-3.732,2.58l-5.994,15.871c-0.586,1.553-2.073,2.58-3.732,2.58
		H3.994c-2.827,0-4.757-2.859-3.7-5.482l39.611-98.238c0.609-1.509,2.073-2.498,3.7-2.498h25.394c1.577,0,3.006,0.929,3.646,2.37
		l43.644,98.238C117.461,306.166,115.53,309.137,112.643,309.137z M53.084,237.725l-9.98,26.448
		c-0.985,2.609,0.944,5.398,3.733,5.398h20.96c2.845,0,4.775-2.892,3.685-5.519l-10.979-26.448
		C59.116,234.266,54.36,234.344,53.084,237.725z"/>
	<path style="fill:#C2C2C4;" d="M224.137,202.92h17.238c2.203,0,3.99,1.786,3.99,3.99v98.238c0,2.203-1.786,3.99-3.99,3.99h-18.499
		c-2.203,0-3.99-1.786-3.99-3.99v-51.599c0-3.701-4.602-5.407-7.015-2.601l-20.447,23.779c-0.758,0.881-1.863,1.389-3.025,1.389
		h-0.387c-1.163,0-2.267-0.507-3.025-1.389l-20.447-23.779c-2.413-2.806-7.015-1.1-7.015,2.601v51.599c0,2.203-1.786,3.99-3.99,3.99
		h-18.497c-2.203,0-3.99-1.786-3.99-3.99V206.91c0-2.203,1.786-3.99,3.99-3.99h17.236c1.158,0,2.259,0.503,3.017,1.379
		l29.898,34.539c1.591,1.838,4.442,1.838,6.033,0l29.898-34.539C221.878,203.423,222.979,202.92,224.137,202.92z"/>
	<path style="fill:#C2C2C4;" d="M312.455,202.92c38.777,0,58.711,24.137,58.711,53.261c0,30.525-19.309,52.956-61.672,52.956
		h-39.929c-2.203,0-3.99-1.786-3.99-3.99V206.91c0-2.203,1.786-3.99,3.99-3.99H312.455z M292.053,285.68
		c0,2.203,1.786,3.99,3.99,3.99h13.296c26.63,0,34.575-18.067,34.575-33.644c0-18.223-9.812-33.637-34.886-33.637h-12.984
		c-2.203,0-3.99,1.786-3.99,3.99v59.301H292.053z"/>
</g>
<g>
	<path style="fill:#72BE4F;" d="M474.625,228.104h-49.129c-1.058,0-2.073-0.42-2.821-1.169l-25.407-25.41
		c-2.513-2.513-0.733-6.811,2.821-6.811h107.922c2.203,0,3.99,1.786,3.99,3.99v107.925c0,3.555-4.298,5.335-6.811,2.821
		l-25.407-25.409c-0.748-0.748-1.168-1.763-1.168-2.821v-49.125C478.614,229.89,476.828,228.104,474.625,228.104z"/>
	<path style="fill:#72BE4F;" d="M423.804,278.924v-34.496c0-3.554-4.297-5.334-6.811-2.821L390.6,268
		c-0.748,0.748-1.169,1.763-1.169,2.821v42.475c0,2.203,1.786,3.99,3.99,3.99h42.465c1.058,0,2.073-0.42,2.821-1.169l26.393-26.393
		c2.513-2.513,0.733-6.811-2.821-6.811h-34.486C425.591,282.914,423.804,281.128,423.804,278.924z"/>
</g>
<g>
	<path style="fill:#B0B0B5;" d="M17.293,303.656l39.611-98.238c0.608-1.509,2.073-2.498,3.7-2.498h-17
		c-1.627,0-3.091,0.988-3.7,2.498L0.293,303.656c-1.057,2.622,0.873,5.482,3.7,5.482h16.999
		C18.166,309.137,16.235,306.278,17.293,303.656z"/>
	<path style="fill:#B0B0B5;" d="M148.048,305.148V206.91c0-2.203,1.786-3.99,3.99-3.99h-16.999c-2.203,0-3.99,1.786-3.99,3.99
		v98.238c0,2.203,1.786,3.99,3.99,3.99h16.999C149.834,309.137,148.048,307.351,148.048,305.148z"/>
	<path style="fill:#B0B0B5;" d="M282.574,305.148V206.91c0-2.203,1.786-3.99,3.99-3.99h-16.999c-2.204,0-3.99,1.786-3.99,3.99
		v98.238c0,2.203,1.786,3.99,3.99,3.99h16.999C284.36,309.137,282.574,307.351,282.574,305.148z"/>
</g>
<g>
	<path style="fill:#66AF3F;" d="M414.266,201.525c-2.513-2.513-0.733-6.811,2.821-6.811h-16.999c-3.554,0-5.334,4.297-2.821,6.811
		l25.407,25.41c0.748,0.748,1.763,1.169,2.821,1.169h16.999c-1.058,0-2.073-0.421-2.821-1.169L414.266,201.525z"/>
	<path style="fill:#66AF3F;" d="M495.613,232.094c0-2.203-1.786-3.99-3.989-3.99h-16.999c2.203,0,3.989,1.786,3.989,3.99v49.125
		c0,1.058,0.42,2.073,1.168,2.821l15.831,15.832V232.094z"/>
	<path style="fill:#66AF3F;" d="M406.431,313.297v-37.324c0-1.058,0.42-2.073,1.169-2.821l16.205-16.205v-12.518
		c0-3.554-4.297-5.334-6.811-2.821L390.6,268c-0.748,0.748-1.169,1.763-1.169,2.821v42.476c0,2.203,1.786,3.99,3.99,3.99h16.999
		C408.217,317.287,406.431,315.5,406.431,313.297z"/>
</g>
<g>
</g>
<g>
</g>
<g>
</g>
<g>
</g>
<g>
</g>
<g>
</g>
<g>
</g>
<g>
</g>
<g>
</g>
<g>
</g>
<g>
</g>
<g>
</g>
<g>
</g>
<g>
</g>
<g>
</g>
</svg>
