<svg width="21" height="35" viewBox="0 0 21 35" fill="none" xmlns="http://www.w3.org/2000/svg">
<path d="M18.302 0H2.698C1.398 0 0.334 1.063 0.334 2.364V32.635C0.334 33.936 1.398 35 2.698 35H18.302C19.602 35 20.666 33.938 20.666 32.636V2.364C20.666 1.063 19.602 0 18.302 0ZM8.004 1.704H12.996C13.154 1.704 13.282 1.832 13.282 1.991C13.282 2.149 13.154 2.277 12.996 2.277H8.004C7.846 2.277 7.718 2.149 7.718 1.991C7.718 1.832 7.846 1.704 8.004 1.704ZM10.5 33.818C9.847 33.818 9.318 33.289 9.318 32.635C9.318 31.981 9.847 31.453 10.5 31.453C11.153 31.453 11.682 31.981 11.682 32.635C11.682 33.289 11.153 33.818 10.5 33.818ZM19.021 30.625H1.979V3.749H19.021V30.625Z" fill="black"/>
</svg>
